REM DIRINDEX 1\2,1\3
REM DIRNAME cjc039,folder01,folder02
TITLE ""
FILE "2761-2780.mp3" MP3
  TRACK 01 AUDIO
    TITLE "0:"
    INDEX 01 00:00:00
  TRACK 02 AUDIO
    TITLE "2:cjc039_4521"
    INDEX 01 00:00:27
  TRACK 03 AUDIO
    TITLE "0:"
    INDEX 01 00:01:46
  TRACK 04 AUDIO
    TITLE "3:cjc039_4522"
    INDEX 01 00:02:24
  TRACK 05 AUDIO
    TITLE "0:"
    INDEX 01 00:06:26
  TRACK 06 AUDIO
    TITLE "2:cjc039_4523"
    INDEX 01 00:07:74
  TRACK 07 AUDIO
    TITLE "0:"
    INDEX 01 00:09:20
  TRACK 08 AUDIO
    TITLE "3:cjc039_4524"
    INDEX 01 00:10:02
  TRACK 09 AUDIO
    TITLE "0:"
    INDEX 01 00:13:55
  TRACK 10 AUDIO
    TITLE "2:cjc039_4525"
    INDEX 01 00:15:40
  TRACK 11 AUDIO
    TITLE "0:"
    INDEX 01 00:16:48
  TRACK 12 AUDIO
    TITLE "3:cjc039_4526"
    INDEX 01 00:17:23
  TRACK 13 AUDIO
    TITLE "0:"
    INDEX 01 00:20:20
  TRACK 14 AUDIO
    TITLE "2:cjc039_4527"
    INDEX 01 00:21:72
  TRACK 15 AUDIO
    TITLE "0:"
    INDEX 01 00:23:28
  TRACK 16 AUDIO
    TITLE "3:cjc039_4528"
    INDEX 01 00:24:00
  TRACK 17 AUDIO
    TITLE "0:"
    INDEX 01 00:27:61
  TRACK 18 AUDIO
    TITLE "2:cjc039_4529"
    INDEX 01 00:29:34
  TRACK 19 AUDIO
    TITLE "0:"
    INDEX 01 00:30:34
  TRACK 20 AUDIO
    TITLE "3:cjc039_4530"
    INDEX 01 00:31:12
  TRACK 21 AUDIO
    TITLE "0:"
    INDEX 01 00:34:40
  TRACK 22 AUDIO
    TITLE "2:cjc039_4531"
    INDEX 01 00:36:15
  TRACK 23 AUDIO
    TITLE "0:"
    INDEX 01 00:37:16
  TRACK 24 AUDIO
    TITLE "3:cjc039_4532"
    INDEX 01 00:37:73
  TRACK 25 AUDIO
    TITLE "0:"
    INDEX 01 00:40:64
  TRACK 26 AUDIO
    TITLE "2:cjc039_4533"
    INDEX 01 00:42:37
  TRACK 27 AUDIO
    TITLE "0:"
    INDEX 01 00:43:46
  TRACK 28 AUDIO
    TITLE "3:cjc039_4534"
    INDEX 01 00:44:26
  TRACK 29 AUDIO
    TITLE "0:"
    INDEX 01 00:47:28
  TRACK 30 AUDIO
    TITLE "2:cjc039_4535"
    INDEX 01 00:49:04
  TRACK 31 AUDIO
    TITLE "0:"
    INDEX 01 00:50:25
  TRACK 32 AUDIO
    TITLE "3:cjc039_4536"
    INDEX 01 00:50:74
  TRACK 33 AUDIO
    TITLE "0:"
    INDEX 01 00:54:29
  TRACK 34 AUDIO
    TITLE "2:cjc039_4537"
    INDEX 01 00:56:06
  TRACK 35 AUDIO
    TITLE "0:"
    INDEX 01 00:57:17
  TRACK 36 AUDIO
    TITLE "3:cjc039_4538"
    INDEX 01 00:57:72
  TRACK 37 AUDIO
    TITLE "0:"
    INDEX 01 01:01:17
  TRACK 38 AUDIO
    TITLE "2:cjc039_4539"
    INDEX 01 01:02:67
  TRACK 39 AUDIO
    TITLE "0:"
    INDEX 01 01:04:19
  TRACK 40 AUDIO
    TITLE "3:cjc039_4540"
    INDEX 01 01:05:01
  TRACK 41 AUDIO
    TITLE "0:"
    INDEX 01 01:09:01
  TRACK 42 AUDIO
    TITLE "2:cjc039_4541"
    INDEX 01 01:10:53
  TRACK 43 AUDIO
    TITLE "0:"
    INDEX 01 01:11:52
  TRACK 44 AUDIO
    TITLE "3:cjc039_4542"
    INDEX 01 01:12:38
  TRACK 45 AUDIO
    TITLE "0:"
    INDEX 01 01:15:39
  TRACK 46 AUDIO
    TITLE "2:cjc039_4543"
    INDEX 01 01:17:10
  TRACK 47 AUDIO
    TITLE "0:"
    INDEX 01 01:20:08
  TRACK 48 AUDIO
    TITLE "3:cjc039_4544"
    INDEX 01 01:20:53
  TRACK 49 AUDIO
    TITLE "0:"
    INDEX 01 01:24:04
  TRACK 50 AUDIO
    TITLE "2:cjc039_4545"
    INDEX 01 01:25:57
  TRACK 51 AUDIO
    TITLE "0:"
    INDEX 01 01:26:70
  TRACK 52 AUDIO
    TITLE "3:cjc039_4546"
    INDEX 01 01:27:46
  TRACK 53 AUDIO
    TITLE "0:"
    INDEX 01 01:31:02
  TRACK 54 AUDIO
    TITLE "2:cjc039_4547"
    INDEX 01 01:32:55
  TRACK 55 AUDIO
    TITLE "0:"
    INDEX 01 01:33:70
  TRACK 56 AUDIO
    TITLE "3:cjc039_4548"
    INDEX 01 01:34:50
  TRACK 57 AUDIO
    TITLE "0:"
    INDEX 01 01:38:55
  TRACK 58 AUDIO
    TITLE "2:cjc039_4549"
    INDEX 01 01:40:36
  TRACK 59 AUDIO
    TITLE "0:"
    INDEX 01 01:41:28
  TRACK 60 AUDIO
    TITLE "3:cjc039_4550"
    INDEX 01 01:42:08
  TRACK 61 AUDIO
    TITLE "0:"
    INDEX 01 01:44:73
  TRACK 62 AUDIO
    TITLE "2:cjc039_4551"
    INDEX 01 01:46:53
  TRACK 63 AUDIO
    TITLE "0:"
    INDEX 01 01:48:07
  TRACK 64 AUDIO
    TITLE "3:cjc039_4552"
    INDEX 01 01:48:60
  TRACK 65 AUDIO
    TITLE "0:"
    INDEX 01 01:52:53
  TRACK 66 AUDIO
    TITLE "2:cjc039_4553"
    INDEX 01 01:54:27
  TRACK 67 AUDIO
    TITLE "0:"
    INDEX 01 01:55:34
  TRACK 68 AUDIO
    TITLE "3:cjc039_4554"
    INDEX 01 01:56:10
  TRACK 69 AUDIO
    TITLE "0:"
    INDEX 01 02:00:10
  TRACK 70 AUDIO
    TITLE "2:cjc039_4555"
    INDEX 01 02:01:62
  TRACK 71 AUDIO
    TITLE "0:"
    INDEX 01 02:03:22
  TRACK 72 AUDIO
    TITLE "3:cjc039_4556"
    INDEX 01 02:04:06
  TRACK 73 AUDIO
    TITLE "0:"
    INDEX 01 02:07:10
  TRACK 74 AUDIO
    TITLE "2:cjc039_4557"
    INDEX 01 02:08:64
  TRACK 75 AUDIO
    TITLE "0:"
    INDEX 01 02:09:71
  TRACK 76 AUDIO
    TITLE "3:cjc039_4558"
    INDEX 01 02:10:53
  TRACK 77 AUDIO
    TITLE "0:"
    INDEX 01 02:13:34
  TRACK 78 AUDIO
    TITLE "2:cjc039_4559"
    INDEX 01 02:15:02
  TRACK 79 AUDIO
    TITLE "0:"
    INDEX 01 02:16:44
  TRACK 80 AUDIO
    TITLE "3:cjc039_4560"
    INDEX 01 02:17:22
  TRACK 81 AUDIO
    TITLE "0:"
    INDEX 01 02:22:54
